<?xml version="1.0" encoding="utf-8"?>
<!-- Generator: Adobe Illustrator 22.0.1, SVG Export Plug-In . SVG Version: 6.00 Build 0)  -->
<svg version="1.1" id="Layer_1" xmlns="http://www.w3.org/2000/svg" xmlns:xlink="http://www.w3.org/1999/xlink" x="0px" y="0px"
	 viewBox="0 0 83.5 80.8" style="enable-background:new 0 0 83.5 80.8;" xml:space="preserve">
<g>
	<path d="M81,37.8H52.5c-1.1-5.1-5.7-8.9-11.1-8.9s-10,3.8-11.1,8.9H2.5c-1.4,0-2.5,1.1-2.5,2.5s1.1,2.5,2.5,2.5h27.8
		c1.1,5.1,5.7,8.9,11.1,8.9s10-3.8,11.1-8.9H81c1.4,0,2.5-1.1,2.5-2.5C83.5,39,82.3,37.8,81,37.8z M41.4,46.7
		c-3.5,0-6.4-2.9-6.4-6.4s2.9-6.4,6.4-6.4s6.4,2.9,6.4,6.4S44.9,46.7,41.4,46.7z"/>
	<path d="M11.5,22.8c5.4,0,10-3.8,11.1-8.9h58.3c1.4,0,2.5-1.1,2.5-2.5s-1.1-2.5-2.5-2.5H22.6C21.5,3.8,16.9,0,11.5,0
		C5.2,0,0.1,5.2,0.1,11.4S5.2,22.8,11.5,22.8z M11.5,5c3.5,0,6.4,2.9,6.4,6.4s-2.9,6.4-6.4,6.4s-6.4-2.9-6.4-6.4S8,5,11.5,5z"/>
	<path d="M72,58c-5.4,0-9.9,3.8-11.1,8.8H2.5c-1.4,0-2.5,1.1-2.5,2.5c0,1.4,1.1,2.5,2.5,2.5h58.4c1.1,5.1,5.7,9,11.1,9
		c6.3,0,11.4-5.1,11.4-11.4S78.2,58,72,58z M72,75.7c-3.5,0-6.4-2.9-6.4-6.4s2.9-6.4,6.4-6.4s6.4,2.9,6.4,6.4S75.5,75.7,72,75.7z"/>
</g>
</svg>
