<?xml version="1.0" encoding="utf-8"?>
<!-- Generator: Adobe Illustrator 22.0.1, SVG Export Plug-In . SVG Version: 6.00 Build 0)  -->
<svg version="1.1" id="Layer_1" xmlns="http://www.w3.org/2000/svg" xmlns:xlink="http://www.w3.org/1999/xlink" x="0px" y="0px"
	 viewBox="0 0 154.6 135.2" style="enable-background:new 0 0 154.6 135.2;" xml:space="preserve">
<style type="text/css">
	.st0{fill:#CD0000;}
</style>
<g>
	<path class="st0" d="M146.8,75.2H7.6c-4.2,0-7.6-3.4-7.6-7.6l0,0C0,63.4,3.4,60,7.6,60H147c4.2,0,7.6,3.4,7.6,7.6l0,0
		C154.6,71.8,151.2,75.2,146.8,75.2z"/>
	<path class="st0" d="M146.8,15.2H7.6C3.4,15.2,0,11.8,0,7.6l0,0C0,3.4,3.4,0,7.6,0H147c4.2,0,7.6,3.4,7.6,7.6l0,0
		C154.6,11.8,151.2,15.2,146.8,15.2z"/>
	<path class="st0" d="M146.8,135.2H7.6c-4.2,0-7.6-3.4-7.6-7.6l0,0c0-4.2,3.4-7.6,7.6-7.6H147c4.2,0,7.6,3.4,7.6,7.6l0,0
		C154.6,131.8,151.2,135.2,146.8,135.2z"/>
</g>
</svg>
